# xmcd CD database file
#
# Track frame offsets:
#	150
#	24877
#	46142
#	63882
#	107162
#	119601
#	141428
#	174262
#	186200
#	200110
#	221621
#	239641
#	266203
#	286674
#	316203
#	326706
#
# Disc length: 4583 seconds
#
# Revision: 1
# Processed by: cddbd v1.5.1PL2 Copyright (c) Steve Scherf et al.
# Submitted via: CDex 1.40Beta8
#
DISCID=f411e510
DTITLE=Various Artist - The Original Jazz Album
DYEAR=2004
DGENRE=Jazz
TTITLE0=Herbie Hancock/Cantaloupe Island
TTITLE1=Miles Davis Quartet/Weirdo
TTITLE2=John Coltrane/Like Sonny
TTITLE3=Art Blakey and The Jazz Messengers/Moanin'
TTITLE4=Nat King Cole and The George Shearing Quintet/Let There Be Love
TTITLE5=Buddy Rich/The Boat Goes On
TTITLE6=Horace Silver/Song For My Father
TTITLE7=Peggy Lee/Cheek To Cheek
TTITLE8=Cannonball Adderley/Mercy Mercy Mercy
TTITLE9=Count Basie Orchestra/Lullaby Of Birdland
TTITLE10=Louis Armstrong and Duke Ellington/It Don't Mean A Thing (If It Ain't Got That Swing)
TTITLE11=Stan Getz/Crazy Rhythm
TTITLE12=Donald Byrd/(Fallin' Like) Dominoes
TTITLE13=Dexter Gordon/Cheese Cake
TTITLE14=Dinah Washington/Call Me Irresponsible
TTITLE15=Charlie Parker/Embraceable You
EXTD=YEAR: 2004 ID3G: 8
EXTT0=
EXTT1=
EXTT2=
EXTT3=
EXTT4=
EXTT5=
EXTT6=
EXTT7=
EXTT8=
EXTT9=
EXTT10=
EXTT11=
EXTT12=
EXTT13=
EXTT14=
EXTT15=
PLAYORDER=
